<svg width="42" height="34" viewBox="0 0 42 34" fill="none" xmlns="http://www.w3.org/2000/svg">
<g clip-path="url(#clip0_309_444)">
<path d="M15 31C22.732 31 29 24.732 29 17C29 9.26801 22.732 3 15 3C7.26801 3 1 9.26801 1 17C1 24.732 7.26801 31 15 31Z" fill="#87E8DE"/>
<path d="M15.0001 29.1937C21.7344 29.1937 27.1937 23.7344 27.1937 17C27.1937 10.2656 21.7344 4.80634 15.0001 4.80634C8.26569 4.80634 2.8064 10.2656 2.8064 17C2.8064 23.7344 8.26569 29.1937 15.0001 29.1937Z" fill="#5CDBD3"/>
<path d="M19.0645 26.9355C11.3325 26.9355 5.06454 20.6675 5.06454 12.9355C5.06454 10.1093 5.90476 7.48078 7.34495 5.28043C3.5253 7.78047 1 12.0942 1 17C1 24.732 7.26801 31 15 31C19.9059 31 24.2195 28.4747 26.7196 24.6551C24.5192 26.0953 21.8907 26.9355 19.0645 26.9355Z" fill="#36CFC9"/>
<path d="M2.8064 17C2.8064 23.7343 8.26563 29.1936 15 29.1936C17.9251 29.1936 20.609 28.1625 22.7101 26.4453C21.5469 26.7593 20.3271 26.9355 19.0644 26.9355C11.3325 26.9355 5.06444 20.6675 5.06444 12.9355C5.06444 11.6728 5.24059 10.453 5.55455 9.28983C3.83742 11.391 2.8064 14.0748 2.8064 17Z" fill="#5CDBD3"/>
<path d="M15 28.2902C21.2354 28.2902 26.2902 23.2354 26.2902 17C26.2902 10.7646 21.2354 5.70978 15 5.70978C8.76453 5.70978 3.70972 10.7646 3.70972 17C3.70972 23.2354 8.76453 28.2902 15 28.2902Z" fill="#D6E4FF"/>
<path d="M15 28.375C21.2822 28.375 26.375 23.2822 26.375 17C26.375 10.7178 21.2822 5.625 15 5.625C8.71776 5.625 3.625 10.7178 3.625 17C3.625 23.2822 8.71776 28.375 15 28.375Z" fill="white"/>
<g clip-path="url(#clip1_309_444)">
<path fill-rule="evenodd" clip-rule="evenodd" d="M18.931 15.5486L18.9307 15.5494C19.6145 16.4445 20.0232 17.5784 20.0232 18.8116C20.0232 20.0632 19.6023 21.2124 18.9 22.1137L18.8395 22.1913L18.8235 22.0927C18.8098 22.0088 18.7938 21.9241 18.7752 21.8387C18.4237 20.2265 17.2786 18.844 15.3938 17.7246C14.121 16.9708 13.3925 16.0631 13.2012 15.0318C13.0777 14.3649 13.1696 13.695 13.347 13.1213C13.5245 12.5477 13.7884 12.0672 14.0126 11.7779L14.0128 11.7777L14.746 10.8417C14.8745 10.6776 15.1152 10.6776 15.2438 10.8417L18.931 15.5486ZM20.0906 14.6135L20.0908 14.6131L15.1765 8.33983C15.0827 8.22006 14.907 8.22006 14.8132 8.33983L9.89886 14.6132L9.89899 14.6135L9.883 14.6342C8.97868 15.8058 8.4375 17.2946 8.4375 18.9154C8.4375 22.69 11.3733 25.75 14.9948 25.75C18.6164 25.75 21.5522 22.69 21.5522 18.9154C21.5522 17.2947 21.011 15.8058 20.1067 14.6342L20.0906 14.6135ZM11.0747 15.5284L11.0749 15.5281L11.5144 14.967L11.5277 15.0706C11.5383 15.1526 11.551 15.2351 11.5662 15.318C11.8506 16.8759 12.8666 18.1749 14.5652 19.1809C16.0417 20.0582 16.9014 21.0671 17.1491 22.1735C17.2524 22.6353 17.2708 23.0896 17.2261 23.4868L17.2233 23.5114L17.202 23.5223C16.5356 23.8621 15.7865 24.0529 14.9947 24.0529C12.2176 24.0529 9.96618 21.7064 9.96618 18.8116C9.96618 17.5688 10.3812 16.4268 11.0747 15.5284Z" fill="#36CFC9"/>
</g>
</g>
<rect x="0.5" y="2.5" width="29" height="29" rx="14.5" stroke="#F0F3F8"/>
<g clip-path="url(#clip2_309_444)">
<path d="M25 33C33.8366 33 41 25.8366 41 17C41 8.16344 33.8366 1 25 1C16.1634 1 9 8.16344 9 17C9 25.8366 16.1634 33 25 33Z" fill="#91D5FF"/>
<path d="M25.0001 30.9356C32.6965 30.9356 38.9357 24.6964 38.9357 17C38.9357 9.30355 32.6965 3.06436 25.0001 3.06436C17.3036 3.06436 11.0645 9.30355 11.0645 17C11.0645 24.6964 17.3036 30.9356 25.0001 30.9356Z" fill="#69C0FF"/>
<path d="M29.6452 28.3548C20.8086 28.3548 13.6452 21.1914 13.6452 12.3548C13.6452 9.12492 14.6054 6.12086 16.2514 3.60617C11.8861 6.46336 9 11.3933 9 17C9 25.8365 16.1634 33 25 33C30.6067 33 35.5366 30.1139 38.3938 25.7486C35.8791 27.3946 32.8751 28.3548 29.6452 28.3548Z" fill="#4CA3FF"/>
<path d="M11.0645 17C11.0645 24.6964 17.3036 30.9355 25 30.9355C28.343 30.9355 31.4103 29.7572 33.8115 27.7947C32.4821 28.1535 31.0881 28.3548 29.6451 28.3548C20.8085 28.3548 13.6451 21.1914 13.6451 12.3548C13.6451 10.9118 13.8464 9.51776 14.2052 8.18839C12.2428 10.5897 11.0645 13.6569 11.0645 17Z" fill="#40A9FF"/>
<path d="M25.0001 29.9031C32.1263 29.9031 37.9032 24.1262 37.9032 17C37.9032 9.87379 32.1263 4.09686 25.0001 4.09686C17.8738 4.09686 12.0969 9.87379 12.0969 17C12.0969 24.1262 17.8738 29.9031 25.0001 29.9031Z" fill="#D6E4FF"/>
<path d="M25 30C32.1797 30 38 24.1797 38 17C38 9.8203 32.1797 4 25 4C17.8203 4 12 9.8203 12 17C12 24.1797 17.8203 30 25 30Z" fill="white"/>
<g clip-path="url(#clip3_309_444)">
<path fill-rule="evenodd" clip-rule="evenodd" d="M29.193 15.5071L29.1927 15.5079C29.9222 16.4287 30.3581 17.5949 30.3581 18.8634C30.3581 20.1507 29.9091 21.3328 29.16 22.2598L29.0955 22.3396L29.0784 22.2382C29.0638 22.1519 29.0467 22.0648 29.0269 21.977C28.652 20.3187 27.4305 18.8967 25.4201 17.7453C24.0624 16.97 23.2853 16.0363 23.0813 14.9755C22.9496 14.2896 23.0475 13.6006 23.2368 13.0105C23.4261 12.4205 23.7076 11.9262 23.9468 11.6287L23.947 11.6285L24.729 10.6657C24.8662 10.4969 25.1229 10.4969 25.26 10.6657L29.193 15.5071ZM30.43 14.5453L30.4301 14.5449L25.1883 8.0924C25.0882 7.9692 24.9008 7.9692 24.8007 8.0924L19.5588 14.545L19.5589 14.5454L19.5419 14.5667C18.5773 15.7717 18 17.3031 18 18.9701C18 22.8525 21.1315 26 24.9945 26C28.8575 26 31.989 22.8525 31.989 18.9701C31.989 17.3031 31.4117 15.7717 30.4471 14.5667L30.43 14.5453ZM20.813 15.4863L20.8132 15.4861L21.2821 14.9089L21.2963 15.0155C21.3075 15.0999 21.3211 15.1847 21.3372 15.2699C21.6406 16.8723 22.7243 18.2084 24.5362 19.2432C26.1111 20.1456 27.0281 21.1833 27.2924 22.3213C27.4026 22.7963 27.4222 23.2636 27.3745 23.6721L27.3715 23.6974L27.3488 23.7086C26.638 24.0582 25.8389 24.2544 24.9943 24.2544C22.0321 24.2544 19.6306 21.8408 19.6306 18.8634C19.6306 17.585 20.0733 16.4104 20.813 15.4863Z" fill="#4CA3FF"/>
</g>
</g>
<rect x="8.5" y="0.5" width="33" height="33" rx="16.5" stroke="#F0F3F8"/>
<defs>
<clipPath id="clip0_309_444">
<rect x="1" y="3" width="28" height="28" rx="14" fill="white"/>
</clipPath>
<clipPath id="clip1_309_444">
<rect width="13.125" height="17.5" fill="white" transform="translate(8.4375 8.25)"/>
</clipPath>
<clipPath id="clip2_309_444">
<rect x="9" y="1" width="32" height="32" rx="16" fill="white"/>
</clipPath>
<clipPath id="clip3_309_444">
<rect width="14" height="18" fill="white" transform="translate(18 8)"/>
</clipPath>
</defs>
</svg>
