<svg width="32" height="32" viewBox="0 0 32 32" fill="none" xmlns="http://www.w3.org/2000/svg">
<path d="M16 32C24.8366 32 32 24.8366 32 16C32 7.16344 24.8366 0 16 0C7.16344 0 0 7.16344 0 16C0 24.8366 7.16344 32 16 32Z" fill="#FFADD2"/>
<path d="M16.0001 29.9356C23.6965 29.9356 29.9357 23.6964 29.9357 16C29.9357 8.30355 23.6965 2.06436 16.0001 2.06436C8.30365 2.06436 2.06445 8.30355 2.06445 16C2.06445 23.6964 8.30365 29.9356 16.0001 29.9356Z" fill="#FF85C0"/>
<path d="M20.6452 27.3548C11.8086 27.3548 4.64519 20.1914 4.64519 11.3548C4.64519 8.12492 5.60544 5.12086 7.25138 2.60617C2.88606 5.46336 0 10.3933 0 16C0 24.8365 7.16344 32 16 32C21.6067 32 26.5366 29.1139 29.3938 24.7486C26.8791 26.3946 23.8751 27.3548 20.6452 27.3548Z" fill="#FF85C0"/>
<path d="M2.06445 16C2.06445 23.6964 8.30358 29.9355 16 29.9355C19.343 29.9355 22.4103 28.7572 24.8115 26.7947C23.4821 27.1535 22.0881 27.3548 20.6451 27.3548C11.8085 27.3548 4.64508 20.1914 4.64508 11.3548C4.64508 9.91182 4.84639 8.51776 5.2052 7.18839C3.24277 9.5897 2.06445 12.6569 2.06445 16Z" fill="#F759AB"/>
<path d="M16.0001 28.9031C23.1263 28.9031 28.9032 23.1262 28.9032 16C28.9032 8.87379 23.1263 3.09686 16.0001 3.09686C8.87385 3.09686 3.09692 8.87379 3.09692 16C3.09692 23.1262 8.87385 28.9031 16.0001 28.9031Z" fill="#FFD6E7"/>
<path d="M16 26.3225C21.701 26.3225 26.3225 21.701 26.3225 16C26.3225 10.299 21.701 5.67749 16 5.67749C10.299 5.67749 5.67749 10.299 5.67749 16C5.67749 21.701 10.299 26.3225 16 26.3225Z" fill="white"/>
<path d="M16.0001 18.5806C17.4253 18.5806 18.5807 17.4252 18.5807 16C18.5807 14.5748 17.4253 13.4194 16.0001 13.4194C14.5748 13.4194 13.4194 14.5748 13.4194 16C13.4194 17.4252 14.5748 18.5806 16.0001 18.5806Z" fill="#FFD6E7"/>
<path d="M16 16.5161C15.8639 16.5161 15.7324 16.4624 15.6351 16.3649L9.4415 10.1714C9.23988 9.96975 9.23988 9.64313 9.4415 9.44156C9.64313 9.23994 9.96975 9.23994 10.1713 9.44156L16.1799 15.4501L22.631 14.4577C22.9183 14.4133 23.1764 14.6079 23.2197 14.8894C23.2631 15.1711 23.07 15.4345 22.7883 15.4778L16.0786 16.5101C16.0524 16.5141 16.0262 16.5161 16 16.5161Z" fill="#6B7280"/>
<path d="M16 17.0322C16.5701 17.0322 17.0323 16.5701 17.0323 16C17.0323 15.4299 16.5701 14.9677 16 14.9677C15.4299 14.9677 14.9678 15.4299 14.9678 16C14.9678 16.5701 15.4299 17.0322 16 17.0322Z" fill="#FF85C0"/>
</svg>
